<?xml version="1.0" encoding="UTF-8"?>
<svg viewBox="0 0 1653.0029 340.00784" xmlns="http://www.w3.org/2000/svg">
 <g transform="translate(477.93 -315.5)">
  <path d="m-477.93 587.01c0-37.675 0.2474-68.5 0.5497-68.5s1.8144 0.65403 3.3602 1.4534c2.5119 1.2989 3.7554 1.2383 11.7-0.57028 4.8894-1.113 10.974-2.4699 13.52-3.0152 4.4855-0.96048 31.807-2.3107 36.869-1.822 6.7279 0.64933 12.853 0.13089 16.201-1.3713l3.701-1.6605-0.6062-12.257c-0.4246-8.586-1.0755-12.98-2.1732-14.671-0.8619-1.3275-1.8045-4.4236-2.0948-6.8803-0.5241-4.4347-0.5709-4.482-6.5279-6.5887l-6-2.1219-0.2837-11.355c-0.1752-7.0125 0.1252-11.847 0.7856-12.643 0.5882-0.70869 2.6284-1.581 4.5338-1.9384l3.4643-0.64992 0.01-6.2047c0.01-5.6362 0.4141-6.8364 4.4521-13.1 5.6526-8.7677 9.3369-12.605 12.103-12.605 1.2034 0 3.5942-0.28125 5.3129-0.625 2.8368-0.56735 3.125-0.97269 3.125-4.3942 0-2.8128 0.7659-4.5892 3.0185-7.0005 2.806-3.0039 3.3763-3.1968 8.1065-2.7423 2.7985 0.2689 5.4628 1.095 5.9206 1.8357 1.1831 1.9144 4.9544-1.6298 4.9544-4.6561 0-2.7655 4.3698-6.4176 7.6787-6.4176 1.5234 0 2.301-0.50727 2.1152-1.3798-0.1616-0.75886 2.169-3.2339 5.1792-5.5 4.3834-3.2999 6.307-4.1202 9.6611-4.1202 3.459 0 4.5952 0.5194 6.527 2.9835 7.7192 9.8469 7.9649 10.37 5.3388 11.378-2.5495 0.97833-1.6709 2.2706 2.3661 3.4801 5.7304 1.7169 6.4958 1.4987 8.6273-2.4592 1.0714-1.9896 3.419-4.7394 5.2167-6.1106l3.2687-2.4931-1.8436-2.6394c-1.0139-1.4517-2.1475-3.8962-2.5191-5.4322s-1.4497-3.0782-2.3959-3.4271c-1.9003-0.70066-3.1813-2.226-3.2048-3.8161-0.033-2.2146 8.2981-7.464 11.845-7.464 3.8299 0 10.139 1.9606 10.139 3.1508 0 0.41194 1.4216 2.8553 3.159 5.4297 2.5605 3.7939 2.9479 5.0188 2.0448 6.4648-0.8316 1.3316-0.8085 2.0264 0.091 2.7391 1.1344 0.89885 7.3998 3.1619 10.015 3.6174 7.2164 1.2569 27.665 20.075 27.685 25.477 3e-3 0.75834 1.5801 3.1221 3.5051 5.2529 3.9172 4.3359 4.1136 5.5117 2.0599 12.335-1.3676 4.5441-1.3115 5.1185 1.1136 11.409 1.4046 3.6432 2.9029 7.3257 3.3297 8.1835s1.3271 4.2147 2.0008 7.4599 1.8746 6.8919 2.6687 8.1039c0.89813 1.3707 1.3273 4.0316 1.1355 7.0401l-0.30831 4.8365-4.5-0.2461c-14.323-0.78332-19.175-2.0221-24.503-6.2562-2.0747-1.6487-4.5701-2.9977-5.5455-2.9977-2.6676 0-6.2835 8.1415-5.6775 12.784 0.2668 2.044 0.052 9.0519-0.4761 15.573s-0.691 12.934-0.3606 14.25c0.6111 2.4351 3.0965 3.2915 3.7616 1.2962 0.2636-0.79086 1.4762-0.79812 4.3435-0.026 5.0167 1.3508 37.457 1.3339 37.457-0.0195 0-0.53643 0.45-0.69722 1-0.3573s1 0.17723 1-0.36153 1.4447-1.2969 3.2105-1.6847 4.513-1.6611 6.1049-2.8295c2.8146-2.0657 2.8766-2.3007 2.2467-8.52-0.35624-3.5176-1.1192-7.2767-1.6955-8.3535s-1.4306-4.6656-1.8984-7.9752c-0.58081-4.109-1.5384-6.6582-3.0196-8.0381-3.7386-3.4831-4.9487-8.0144-4.9487-18.531 0-8.938-0.20995-10.053-2.25-11.944-1.2375-1.1477-3.3586-2.2386-4.7135-2.4243-2.4465-0.33533-2.4614-0.40326-2.159-9.8375 0.17836-5.5639 0.95562-11.157 1.876-13.5 2.0177-5.1361 1.8538-12.583-0.3117-14.166-2.1767-1.5917-3.597-8.1123-2.2402-10.285 0.57823-0.9259 2.5358-2.7006 4.3501-3.9438 2.4174-1.6564 3.4708-3.2787 3.9427-6.0717 0.5897-3.4904 0.30124-4.161-3.4252-7.9627-2.238-2.2832-4.0692-5.0332-4.0692-6.111s-0.6199-1.9596-1.3776-1.9596-1.8994-0.62885-2.5373-1.3974c-0.90755-1.0935-0.55493-2.3988 1.6213-6.0017 3.1822-5.2684 7.249-7.6008 13.253-7.6008 3.5654 0 4.8249 0.6406 8.8489 4.5008l4.6918 4.5008-2.2988 1.7903c-2.1709 1.6906-2.2826 5.2081-0.16543 5.2081 0.45199 0 2.4393 1.5254 4.4161 3.3899 3.2073 3.0248 8.7289 5.096 10.054 3.7711 0.27187-0.27187 0.49431-3.0533 0.49431-6.181s0.28911-8.4527 0.64246-11.833c0.58626-5.6091 0.84865-6.1467 3-6.1467 1.2966 0 2.3811 0.5625 2.4099 1.25s7e-3 6.9357-0.0478 13.885l-0.10017 12.635 5.1303 3.1567c6.5005 3.9998 10.965 5.0506 10.965 2.5807 0-0.95865 1.3823-3.3173 3.0717-5.2415s3.7983-5.0221 4.6863-6.8844c1.5416-3.2327 1.5157-3.5196-0.57173-6.343-1.2025-1.6264-2.1863-3.6504-2.1863-4.4977 0-1.0381-0.95908-1.5405-2.941-1.5405-3.8484 0-4.7315-1.6218-2.3546-4.324 1.0527-1.1968 2.4303-3.3918 3.0614-4.8779 2.5949-6.11 13.819-7.5067 18.628-2.318 1.1832 1.2766 3.266 2.4784 4.6286 2.6705 2.1389 0.30162 2.7005-0.2655 4.1106-4.1506 3.4236-9.4335 3.7431-9.9847 5.4154-9.343 1.1111 0.42637 1.4079 1.2756 0.9544 2.7309-0.36199 1.1616-1.0395 3.6871-1.5056 5.6121s-1.5401 6.2-2.3868 9.5c-2.1891 8.5324-2.0543 10.381 0.8371 11.48 1.3462 0.51185 4.1588 2.4539 6.25 4.3157 2.663 2.3708 5.4502 3.7093 9.3023 4.4673 11.259 2.2154 13.603 4.2526 10.65 9.2527-0.90737 1.536-1.6498 3.7809-1.6498 4.9885 0 2.221-5.2623 8.2667-7.9722 9.1591-1.2647 0.41646-1.2024 1.2786 0.44218 6.1168 1.7228 5.0685 1.7862 6.2769 0.63355 12.076-0.95317 4.7954-0.99615 6.9759-0.16798 8.5233 1.3783 2.5754 0.66088 6.0771-2.6413 12.892-2.9773 6.1443-3.3239 6.4287-7.834 6.4287-3.7274 0-3.3119-0.91936-5.1067 11.3-0.93675 6.3777-0.58926 11.822 1.1169 17.5 0.74375 2.475 1.6212 7.0885 1.9499 10.252s1.2187 7.4387 1.9778 9.5 1.9621 6.3776 2.6733 9.5918c1.5577 7.04 2.3854 7.4838 13.47 7.2221 8.4977-0.20058 10.459-0.78662 10.459-3.1252 0-2.5785 5.6062-1.7526 7.7103 1.1359l1.8771 2.5769 17.34-0.0458c15.696-0.0414 17.463-0.22089 18.634-1.8922 0.71132-1.0156 3.0265-2.628 5.1449-3.5833 6.5819-2.968 8.9519-11.593 5.2323-19.041-2.2802-4.5657-3.9387-5.8959-3.9387-3.1591 0 0.78794-1.0125 1.7755-2.25 2.1945-3.2743 1.1088-20.901 0.49224-22.44-0.78489-0.96895-0.80415-1.3099-4.8361-1.3099-15.489 0-14.306-0.0161-14.408-2.4144-15.32-3.0126-1.1454-3.5017-2.7612-3.4945-11.545 3e-3 -4.1396-0.64116-8.5602-1.5735-10.792-1.5233-3.6459-1.4714-4.0938 1.4693-12.658 4.9035-14.281 5.7481-15.846 10.004-18.533 2.183-1.378 4.3554-2.5055 4.8276-2.5055s1.3285-3.7125 1.9028-8.25 1.3804-9.2858 1.7914-10.552c0.68054-2.0964 0.51254-2.2428-1.8829-1.6416-2.184 0.54815-2.6302 0.32062-2.6302-1.3413 0-1.1008 0.675-2.2604 1.5-2.577 1.7174-0.65903 2.034-5.1903 0.43183-6.1805-0.5875-0.3631-0.75394-1.4022-0.36987-2.309 0.95214-2.2482 0.55938-8.4275-0.60999-9.5969-1.8254-1.8254-0.91984-3.095 3.798-5.3245 5.7882-2.7352 7.2664-2.77 12.137-0.28512 4.2518 2.1691 7.1129 5.866 7.1129 9.1905 0 4.391 2.2286 14.867 3.1626 14.867 0.52653 0 3.02 1.575 5.5411 3.5s5.7138 3.5 7.0948 3.5c3.5604 0 10.201 7.1498 10.201 10.983 0 1.5944-0.45 3.177-1 3.5169-1.8799 1.1618-1.0003 2.1833 2.8814 3.3463 6.077 1.8207 8.1898 6.1537 3.0006 6.1537-1.1 0-1.7219 0.45-1.382 1s1.3435 1 2.2303 1 2.4758 0.78153 3.5313 1.7367c1.8221 1.649 1.9832 1.649 3.189 0 0.69846-0.95519 2.0293-1.7367 2.9574-1.7367s2.8178-1.2196 4.1992-2.7101c1.9873-2.1443 3.3344-2.6773 6.4522-2.553 2.1673 0.0864 3.9406-0.25336 3.9406-0.75508s1.35-2.4498 3-4.329c2.0818-2.371 3-4.463 3-6.8348 0-1.8799 0.5625-3.986 1.25-4.6803 1.0012-1.011 0.90548-1.4567-0.48061-2.2388-0.95183-0.53711-2.9071-2.9841-4.345-5.4377-1.6676-2.8455-3.3157-4.4612-4.5508-4.4612-3.0752 0-3.2672-2.6174-0.4618-6.2955 1.4235-1.8663 2.5882-3.8827 2.5882-4.4808 0-2.3327 5.7819-5.2237 10.447-5.2237 3.8992 0 5.5257 0.66982 10.205 4.2025l5.5662 4.2025-2.2614 1.8312c-3.2187 2.6064-3.9386 11.168-1.0682 12.704 2.5579 1.369 6.8066 1.3618 7.6562-0.0128 0.36455-0.58984 0.8021-8.9508 0.97233-18.58s0.59905-17.797 0.95291-18.151 1.8554 0.0365 3.3367 0.86746l2.6933 1.5108 0.27092 20.279c0.26765 20.035 0.29653 20.276 2.3946 19.963 1.6002-0.23871 2.4135-1.4634 3.2994-4.9682 1.435-5.677 4.0959-9.921 6.6369-10.586 2.3421-0.61247 2.3426-0.57534-0.10185-7.2631-5.3423-14.616 1.029-25.357 12.258-20.666 5.6682 2.3683 8.6361 9.5663 6.0676 14.715-1.3755 2.7573-1.3739 3.2394 0.0157 4.775 1.5364 1.6977 11.765 7.2234 16.784 9.0668 1.8734 0.68813 2.8056 1.9156 3.2554 4.2865 0.34663 1.8272 1.2604 4.5294 2.0306 6.0048s1.6967 4.0319 2.0589 5.6809 1.3046 3.5345 2.0942 4.1898 1.4357 2.2506 1.4357 3.5449 0.87668 3.795 1.9482 5.5569 1.6778 3.6411 1.3472 4.1759 0.0303 1.4702 0.80182 2.0786c3.1178 2.4587 5.8205 9.9386 5.2721 14.59-0.42564 3.6101-0.0108 5.4676 2.0981 9.3932 2.7821 5.1788 2.7708 9.3343-0.0317 11.66-0.78965 0.65535-1.4357 2.5136-1.4357 4.1295 0 2.7834-0.19718 2.9216-3.75 2.6276l-3.7499-0.31037-0.21597-5c-0.47801-11.066-1.5775-18.499-2.8988-19.595-1.1167-0.92674-1.3852-0.67124-1.3852 1.3178 0 2.5283-2.7238 5.7774-4.8434 5.7774-2.1703 0-5.191 6.2649-4.5855 9.5104 0.80688 4.325-1.1076 8.844-3.4836 8.2227-2.3904-0.6251-4.0829 2.8806-4.8193 9.9821-0.47123 4.5443-0.0866 6.1524 2.9898 12.5 1.9418 4.0066 3.8136 9.609 4.1595 12.45s1.5693 7.7908 2.7187 11c2.9237 8.163 3.4409 13.611 1.4491 15.264-0.87192 0.72363-1.5853 2.1903-1.5853 3.2592 0 1.7602 0.54241 1.8941 5.75 1.419 11.153-1.0174 15.783-1.7997 18.893-3.1926 1.8888-0.84578 4.4072-1.1548 6.3099-0.77427 2.5345 0.5069 3.4653 0.20679 4.6633-1.5037 1.257-1.7946 2.497-2.137 7.7401-2.137 3.5117 0 6.7667 0.52339 7.4396 1.1962 0.92834 0.92834 1.477 0.84274 2.45-0.38222 0.7658-0.96415 3.5185-1.7936 7.0728-2.1311 3.2005-0.30396 6.3505-0.99054 7-1.5257s3.6559-1.6696 6.6809-2.521 7.4317-2.1158 9.7927-2.81c4.7705-1.4027 7.0353-0.6359 8.6632 2.9329 1.0988 2.4089 7.1901 3.9949 8.8744 2.3106 0.58836-0.58836 1.9285-1.0698 2.9782-1.0698 2.1591 0 2.0712-0.83392-1.2646-12-1.068-3.575-2.4708-8.364-3.1174-10.642-0.79681-2.8077-2.5236-5.2692-5.3597-7.6399-4.9398-4.1292-5.9748-7.074-7.6331-21.718-1.4868-13.13-2.225-15.24-5.1853-14.819-1.7323 0.24604-2.3213 1.0785-2.566 3.6267-0.36874 3.8395-2.2779 4.9258-5.8202 3.3118-2.496-1.1372-2.5064-1.1966-1.816-10.381 0.3819-5.0807 1.4861-13.063 2.4537-17.738 0.99025-4.7844 1.6678-11.882 1.55-16.237-0.18196-6.7255 0.0298-7.8126 1.6204-8.3174 1.5396-0.48865 1.8298-1.6726 1.8298-7.4663 0-6.6334 1.4105-11.98 3.1605-11.98 1.4527 0 0.91062-2.7587-0.66052-3.3616-0.84462-0.32411-1.5-1.8127-1.5-3.407 0-1.5573-0.54518-3.3766-1.2115-4.0429s-1.0798-3.0362-0.91773-5.2804c0.19994-2.7691-0.25513-4.6754-1.4246-5.9676-1.6287-1.7997-1.62-1.9352 0.16773-2.596 1.0374-0.38348 3.2786-1.7429 4.9805-3.0208 7.0732-5.3113 19.291-0.0347 19.374 8.3674 0.0174 1.755 0.4816 3.4691 1.0316 3.809 1.7596 1.0875 1.0703 3.5-1 3.5-1.1 0-2 0.38026-2 0.84501 0 1.1199 3.0382 3.6866 5.3288 4.5018 1.0058 0.35797 4.3182 2.3032 7.3608 4.3228 5.8297 3.8695 6.341 3.9421 30.333 4.3072 0.83742 0.0127 2.3297 1.5219 3.3162 3.3538s4.3513 6.0518 7.4774 9.3778 7.4422 8.5772 9.5913 11.669 4.5182 5.6221 5.2647 5.6221c1.2208 0 5.3148-5.5139 5.324-7.1705 2e-3 -0.3688-1.2774-0.95192-2.8431-1.2958l-2.8469-0.62528 0.38117-7.7042c0.66762-13.494 2.2083-19.136 6.4962-23.788 2.9638-3.2153 3.8163-4.953 3.8163-7.7784 0-2.922-0.37825-3.6382-1.9216-3.6382-1.1861 0-3.0043-1.7086-4.75-4.4635-1.8357-2.8969-3.5569-4.4763-4.904-4.5-2.165-0.0381-6.4243-3.8599-6.4243-5.7644 0-0.60442 2.1375-3.1579 4.75-5.6745 8.25-7.9469 15.603-7.3807 23.539 1.8126 5.1705 5.989 5.4439 6.7362 3.1584 8.633-1.3608 1.1294-0.93936 1.915 3.4183 6.3724 8.3919 8.584 9.5411 11.819 9.9753 28.084 0.35717 13.379 0.52002 14.311 3.6711 21 1.8136 3.85 4.7226 11.267 6.4644 16.482 3.0901 9.2522 3.1208 9.5199 1.2656 11.022-1.0458 0.84683-2.2085 3.0752-2.5839 4.9519s-1.423 4.2305-2.328 5.2306c-1.4025 1.5498-1.4714 2.3997-0.46645 5.754 1.3072 4.363 0.76831 10.205-1.5801 17.129-1.5155 4.4686-1.4927 4.6581 1.0234 8.5 2.5692 3.9231 5.4301 14.42 7.6973 28.243 1.4076 8.5819 2.4551 9.3559 10.995 8.1251 11.466-1.6525 23.693-0.67802 27.554 2.196 1.6956 1.2624 26.931 1.2114 29.305-0.0592 1.1523-0.61671 2.5181-1.9116 3.0351-2.8776 0.99249-1.8545 0.0899-10.687-1.8085-17.698-0.59571-2.2-1.3183-6.5766-1.6057-9.7258-0.38436-4.2115-1.1424-6.3457-2.8665-8.0698-3.4272-3.4273-3.4545-12.254-0.0669-21.645 2.2614-6.2692 2.4008-7.3918 1.2195-9.8189-1.1386-2.3393-1.9257-2.7297-5.3776-2.6669-3.6026 0.0655-3.9994-0.15863-3.637-2.0546 0.22376-1.1705 0.0213-3.6159-0.44985-5.4342-0.78556-3.0316-1.2057-3.323-5.06-3.5099-3.6563-0.17732-4.563 0.22754-6.9669 3.1106-3.5361 4.241-5.0205 4.1868-5.846-0.21356-0.5417-2.8875-0.14294-4.2946 2.1962-7.75 1.5719-2.3221 4.3638-5.7688 6.2041-7.6594 2.9172-2.997 3.2666-3.8941 2.7262-7-1.3049-7.5004-2.7915-19.749-2.9206-24.062-0.13318-4.4511-0.0965-4.5032 3.3722-4.7959 3.1376-0.26472 3.7136-0.79107 5.4708-5 1.1124-2.6643 1.9767-7.0643 1.9932-10.147 0.0259-4.8395-0.22239-5.5047-2.2398-6-2.4884-0.61088-6.214-5.5599-6.2244-8.2685-4e-3 -1.1482-1.3229-2.0659-4.0066-2.7885-2.3195-0.62457-4-1.6829-4-2.5191 0-2.1088 6.6098-12.094 9.2125-13.917 3.4591-2.4229 9.9089-1.9914 13.89 0.92919 1.8688 1.3711 4.8604 3.4406 6.6479 4.5988 3.8987 2.5262 4.1004 4.1152 0.75 5.9083-1.4732 0.78845-2.5 2.2185-2.5 3.4819 0 2.2668 3.8216 6.2672 8 8.3743 8.6202 4.347 13.793 14.859 15.572 31.644 0.34968 3.3 1.264 7.3066 2.0319 8.9036s1.3961 4.7695 1.3961 7.05 0.47936 4.6257 1.0652 5.2116c1.4623 1.4623 3.0503 19.25 1.9089 21.383-1.0112 1.8895-0.36037 2.9517 1.8087 2.9517 2.0416 0 15.217 11.884 15.217 13.725 0 1.2372-0.2786 1.2882-1.5 0.27457-1.1967-0.99319-1.8033-0.99319-3 0-0.825 0.68469-1.5 1.7864-1.5 2.4481 0 1.9694-4.6303 5.7159-6.6384 5.3713-2.2892-0.39285-2.0768 2.4886 0.67678 9.1805 1.0184 2.475 2.3345 9.225 2.9246 15s1.4697 12.975 1.9545 16c1.1283 7.0394 0.32636 8-6.6788 8h-5.5164l0.54731 6.0358c0.81177 8.9524 2.2756 10.608 9.922 11.222 5.3936 0.43281 6.9208 0.15705 10.531-1.9014 3.6413-2.0764 4.5263-2.2321 6.4329-1.1318 4.4455 2.5656 7.8449 6.1598 7.8449 8.2944 0 2.0271 0.3858 2.1564 5.25 1.7594 7.121-0.58121 7.6784-0.83581 7.0544-3.2221-0.71534-2.7355 1.1107-4.7745 5.0148-5.5995 5.5804-1.1793 7.6809-4.027 7.6809-10.413 0-3.0843-0.69198-8.0683-1.5377-11.076s-1.7958-7.305-2.1112-9.5504c-0.47424-3.3763-1.1801-4.4092-4.0811-5.9715-3.4798-1.874-3.5036-1.933-3.0052-7.4299 0.27634-3.0475 1.4548-7.2366 2.6188-9.309 2.8365-5.0502 2.6898-9.583-0.46037-14.225-2.037-3.0017-2.5083-4.758-2.25-8.3844l0.32674-4.5874-3.4704-5e-3c-3.9354-6e-3 -8.2577 3.1014-10.591 7.614-1.7388 3.3625-4.96 3.8181-5.746 0.8127-0.81395-3.1126 1.0461-7.3624 4.2635-9.7411 1.578-1.1666 3.9205-4.2743 5.2056-6.9059s2.787-5.1069 3.3375-5.5006c0.59744-0.42723 1.0009-7.2632 1.0009-16.958v-16.242l3.7461-1.5421c3.0481-1.2547 3.8673-2.1942 4.3965-5.0421 0.35773-1.925 1.4845-5.0683 2.5039-6.9852 2.4518-4.6103 2.4153-4.7532-1.6465-6.4504-2.3392-0.9774-3.5-2.123-3.5-3.4544 0-1.0956-0.45-2.2701-1-2.61s-1.0046-1.379-1.0102-2.309c-6e-3 -1.0206-1.5919-2.3553-4-3.3667-2.1944-0.92165-3.9789-2.2716-3.9656-3s2.4145-3.9961 5.3359-7.2618l5.3116-5.9375h13.238l5.7949 5.4375c3.1872 2.9905 5.7949 6.1123 5.7949 6.9373s-1.4625 2.1437-3.25 2.9305c-3.5007 1.5408-4.54 5.3605-1.75 6.4312 0.825 0.31658 1.5 1.2346 1.5 2.04s2.0355 3.1324 4.5234 5.171c4.6072 3.7753 10.477 11.503 10.477 13.793 0 1.6136 7.0015 15.423 9.8424 19.413 1.1867 1.6666 2.1576 4.342 2.1576 5.9454 0 1.8633 0.90212 3.6997 2.5 5.089 1.375 1.1956 2.4915 2.5142 2.4811 2.9303-0.024 0.96173-4.6658 8.0183-8.1562 12.399-2.4992 3.1368-2.7463 4.3737-3.7591 18.817-0.59624 8.5025-1.5371 15.912-2.0909 16.466s-2.4575 1.0222-4.2306 1.0409c-3.0596 0.0323-3.2689 0.28097-4.1107 4.8852-0.56066 3.0663-0.50962 6.1937 0.13874 8.5 2.8246 10.048 3.4687 13.386 4.2736 22.149 0.9704 10.564 2.6052 20.077 4.1672 24.25 1.386 3.7024 6.7822 3.9322 9.1047 0.38762 1.1044-1.6855 2.9281-2.5801 6.365-3.1222 7.4312-1.1721 14.443-0.71132 16.422 1.0792 1.3307 1.2043 3.5222 1.5261 9.0749 1.3327 4.0263-0.14028 12.046 0.0796 17.82 0.48865 8.701 0.61628 11.165 0.46131 14.382-0.90453 2.7534-1.1692 4.1921-1.3377 4.95-0.57983 0.5876 0.58762 1.8784 1.0684 2.8684 1.0684 2.2973 0 2.3538-3.5142 0.1767-11-0.8797-3.025-2.1159-8.2968-2.7471-11.715-0.8918-4.8293-2.0375-7.2793-5.1386-10.988l-3.991-4.7731-0.3487-13.012c-0.1918-7.1565-0.7737-13.531-1.2931-14.166s-0.6635-2.2733-0.3202-3.6409 0.1847-2.7581-0.3522-3.0899c-1.1834-0.73137-2.3207 1.87-1.6181 3.7009 0.2777 0.72367-0.1392 2.5571-0.9263 4.0743-0.8466 1.6319-1.2295 4.262-0.9374 6.4398 0.5667 4.2252-0.9442 5.9917-6.8271 7.9821-3.1145 1.0537-4.2396 0.96154-8.0142-0.65643-6.8542-2.9381-7.2953-3.958-4.4405-10.267l2.4379-5.388-2.0965-8.9199c-1.8964-8.0687-1.9778-9.6433-0.8532-16.5 1.2565-7.6601 4.8576-17.061 7.7667-20.276 1.0557-1.1665 1.3877-2.7302 0.9958-4.6899-0.768-3.8397 0.9649-5.2097 5.6319-4.4523 4.4344 0.71962 6.6952-0.82841 6.6952-4.5845 0-1.4727 0.4487-3.1263 0.9972-3.6748s1.2098-6.0203 1.4697-12.16c0.2707-6.3938 1.0899-12.64 1.9177-14.621 1.5976-3.8237 1.2862-4.622-1.803-4.622-2.4192 0-6.5888-6.972-6.5844-11.009 0-1.4287-0.8585-3.0474-1.9972-3.7585-2.4043-1.5015-2.5479-4.2718-0.4336-8.3605 1.9943-3.8566 6.8177-5.8716 14.055-5.8716 5.3891 0 5.8864 0.21739 9.5321 4.1664 4.4197 4.7874 4.5776 5.3719 1.8464 6.8336-2.5216 1.3495-2.6512 5.9782-0.25 8.9291 1.0856 1.3341 4.5975 2.9241 9.25 4.1879 12.694 3.448 11.684 3.4707 12.256-0.27465 0.2804-1.8383 0.281-5.6432 0-8.4555-0.3215-3.2326-0.095-5.3692 0.6172-5.809 0.6192-0.38267 1.1258-2.4833 1.1258-4.6681 0-2.6234 0.5137-4.1695 1.5127-4.5529 2.0558-0.78887 4.8034 1.5575 3.5675 3.0466-0.5194 0.62588-0.9619 6.5287-0.9832 13.117s-0.045 12.879-0.054 13.979-0.1913 4.475-0.4069 7.5c-0.3738 5.2451 1.5134 11.288 5.3092 17 0.5482 0.825 3.286 5.4017 6.0838 10.17 4.5365 7.7322 4.9457 8.8966 3.7813 10.761-0.7182 1.1499-2.0537 2.3282-2.9679 2.6184-2.6427 0.83875-4.2385 3.2596-3.0984 4.7001 1.1265 1.4233 4.8643 12.893 5.5187 16.935 0.6508 4.0189-0.6592 5.2507-5.6842 5.3451-2.4903 0.0468-4.8055 0.36283-5.145 0.70227s-1.4223 4.1384-2.4063 8.4422-2.3114 9.1407-2.9497 10.749-0.8846 4.18-0.5473 5.7154c0.4662 2.1226-0.1202 3.8575-2.4467 7.2389-1.6829 2.446-3.6155 4.6325-4.2947 4.8589-0.74 0.24668 0.7988 2.5858 3.8401 5.8374 2.7912 2.9842 6.8289 8.1542 8.9728 11.489 5.215 8.1119 11.2 14.775 15.06 16.766 6.1314 3.1625 9.277 9.8169 5.9471 12.58-2.3686 1.9658-2.3677 6.4496 0 10.66 2.0249 3.5979 2.536 3.9112 6.0504 3.7093 2.1113-0.12131 5.1581-0.22042 6.7706-0.22026 2.7942 2.9e-4 2.8529-0.087 1.25-1.8582-2.1438-2.3689-2.1934-3.8704-0.07-2.1078 1.994 1.6549 11.928 2.1767 40.888 2.1477 17.285-0.0173 23.393-0.38155 28.5-1.6996 3.575-0.92268 6.9275-2.0969 7.45-2.6094s2.795-0.93182 5.05-0.93182 4.634-0.53404 5.2868-1.1868c0.9156-0.91567 1.7184-0.68725 3.5144 1 1.2802 1.2027 2.8612 2.1868 3.5133 2.1868s1.1855 0.46899 1.1855 1.0422 0.4502 1.5857 1.0004 2.25 1.8254 2.2896 2.8338 3.6117c1.451 1.9023 3.0159 2.502 7.4997 2.8738 5.3653 0.44494 5.6661 0.34912 5.6661-1.8049 0-1.2511-1.8723-6.238-4.1606-11.082-3.2599-6.9005-4.7556-9.0146-6.9087-9.7652-1.6565-0.57744-3.813-2.775-5.4287-5.5321-2.292-3.911-2.615-5.4091-2.2282-10.334 0.2488-3.1679 1.4063-9.1347 2.5722-13.26s2.1274-7.5436 2.1369-7.597c0.1117-0.63228-3.9914-4.403-4.7912-4.403-1.9349 0-2.3538-1.9789-1.1749-5.5509 0.9746-2.9532 0.8248-4.6121-0.9423-10.43-1.1557-3.8049-2.5029-7.1661-2.9937-7.4695s-0.9309-8.5167-0.9778-18.252c-0.08-16.597 0.05-17.898 2.0842-20.866 1.3509-1.9714 3.4818-3.4992 5.6472-4.0489 3.2443-0.82356 3.5964-1.3183 5.2457-7.3718 1.9947-7.3209 1.568-8.4792-3.4721-9.4248-2.6497-0.49708-3.6837-1.4276-5.1163-4.6046-0.9835-2.1899-2.3981-3.9816-3.1396-3.9816-0.7964 0-1.3609-1.1254-1.3795-2.75-0.017-1.5125-1.3672-5.4385-3-8.7245-3.5438-7.1321-3.5706-7.4904-0.8221-10.985 2.0903-2.6574 2.3762-2.7199 10.909-2.3849 8.0506 0.31609 9.0742 0.59541 12.604 3.4392 2.1126 1.7024 5.1912 5.0034 6.8412 7.3357 2.5548 3.6113 3.0098 5.1947 3.0661 10.671 0.036 3.5367 0.5325 6.8968 1.1026 7.4669 0.7153 0.71532 2.755 0.27649 6.5825-1.4162 6.2713-2.7735 7.4783-5.3024 6.2954-13.19-0.3591-2.3944-0.1462-6.2352 0.4731-8.535 0.8015-2.9768 0.8168-4.4905 0.053-5.2542-2.3181-2.3181-1.4443-2.5554 6.5629-1.7824 0.7524 0.0726 1.0934 2.7251 1.0103 7.8596-0.181 11.197 0.3772 29.219 1.0222 33 0.4583 2.6866 1.003 3.25 3.1421 3.25 1.8204 0 4.0114 1.5164 7.3887 5.1137 4.554 4.8506 4.801 5.4017 4.801 10.712 0 5.2259-0.2782 5.882-4.1805 9.8581-4.1502 4.2287-4.1667 4.2749-2.2758 6.3643 1.0476 1.1576 2.3663 3.5035 2.9305 5.2132 0.7208 2.1842 1.8925 3.3382 3.9406 3.8811 3.4576 0.91652 4.5492 2.3812 4.5699 6.1322 0.011 2.0758-0.64 3.0239-2.5864 3.7639-1.8263 0.69437-2.4156 1.474-1.9773 2.6162 0.7774 2.0257-1.9384 6.3452-3.9894 6.3452-1.2131 0-1.3843 0.76161-0.8433 3.75 0.3735 2.0625 1.2519 4.8841 1.9522 6.2702 0.9787 1.9373 3.4595 12.488 3.4595 14.712 0 0.81531-8.659 4.2251-10.781 4.2455-3.1272 0.0301-3.8682 2.6523-1.7586 6.2236 1.1635 1.9696 1.4236 3.3148 0.7677 3.9706-1.256 1.256-5.0272-0.9651-5.8063-3.4198-0.9372-2.9529-2.2911-1.9633-3.417 2.4975-0.59 2.3375-1.5193 5.31-2.0651 6.6054-1.0105 2.3982-0.2303 6.1917 2.6006 12.645 0.7239 1.65 1.8381 4.8 2.4762 7s1.7218 5.7919 2.4084 7.982l1.2482 3.982 13.841-0.23083c10.696-0.17839 14.343 0.0978 16.049 1.2159 1.2144 0.79572 5.7471 1.7548 10.073 2.1312s8.4214 1.1251 9.1017 1.6638 2.2935 0.71416 3.5848 0.39008 3.7486-0.18748 5.4609 0.30358c2.3206 0.66554 3.4121 0.53255 4.2876-0.52242 0.646-0.77839 2.2359-1.4152 3.5331-1.4152 2.9894 0 3.0438-0.23681 5.0015-21.773 0.3636-4.0002 1.0512-7.5143 1.5281-7.809s0.867-2.4792 0.867-4.8544c0-2.3851 0.5987-4.8154 1.3372-5.4283s1.9145-4.378 2.6201-8.3724 2.0859-11.538 3.0674-16.763 2.1009-11.3 2.4874-13.5c0.9658-5.4978 2.5107-20.31 3.1579-30.278 0.5126-7.8932 0.6883-8.3932 3.7782-10.75 1.7823-1.3595 3.6909-2.4717 4.2412-2.4717 1.8376 0 4.5674-3.9101 4.0666-5.8251-0.272-1.04-0.068-2.6533 0.4538-3.5852 1.1614-2.0755-0.6329-4.5897-3.2756-4.5897-1.0667 0-2.8307-1.6935-4.2592-4.0889-1.3411-2.2489-3.8457-4.9448-5.5658-5.9909-3.8123-2.3184-7.1004-7.4694-7.1055-11.131 0-3.6754 3.354-6.5464 9.8787-8.4431 9.378-2.7263 16.205-0.75155 24.336 7.0387 7.8718 7.5425 8.8524 11.566 3.9035 16.017-1.6173 1.4546-1.8514 2.2188-0.9956 3.25 2.0633 2.4862 4.5808 1.5737 5.2468-1.9018 0.881-4.5971 6.8183-23.066 7.7689-24.167 0.8531-0.98756 8.8583 2.1682 8.8583 3.492 0 0.42427-1.125 2.1084-2.5 3.7425s-2.5 3.6244-2.5 4.4228-1.35 5.1903-3 9.7596-3 9.1372-3 10.151 1.5909 3.6041 3.5353 5.7563c2.0035 2.2177 4.4374 6.5848 5.6176 10.079 1.1453 3.3915 2.817 6.44 3.7147 6.7746 4.33 1.6136 11.34 6.7395 12.631 9.2362 2.456 4.7495 3.4582 10.793 1.9917 12.01-0.7062 0.58609-1.053 1.9491-0.7706 3.0288 0.3767 1.4407 0.01 1.9632-1.3808 1.9632-3.0935 0-6.5015 2.8873-5.5066 4.6652 0.4818 0.86091 0.4594 3.7285-0.051 6.537-0.5001 2.7518-0.6565 5.2561-0.3475 5.5651s3.0317-0.68771 6.0503-2.215c5.5416-2.8038 8.5158-2.8508 8.5158-0.13459 0 2.4024-6.1616 6.4062-10.401 6.7583-2.8555 0.23719-4.441 1.0508-5.9174 3.0368-1.8687 2.5135-1.9226 3.1339-0.7336 8.447 1.23 5.496 1.1908 5.8091-0.9433 7.5372-1.2246 0.99164-3.2466 1.803-4.4933 1.803s-2.8162 0.662-3.4877 1.4711c-1.384 1.6676-0.9554 9.3248 0.7851 14.029 0.6105 1.65 1.761 5.025 2.5566 7.5 2.7116 8.4352 4.9319 14.496 6.2841 17.154 0.7426 1.4599 1.3502 3.5423 1.3502 4.6276 0 2.5095 2.5012 4.6235 4.5432 3.84 0.8627-0.33107 3.2309 0.11157 5.2627 0.98365s6.6191 1.7654 10.194 1.9852 7.7084 0.60976 9.1854 0.86657c2.185 0.3799 2.7441 0.0547 3-1.7452 0.2304-1.6197 1.118-2.3075 3.3146-2.5684 3.547-0.42124 18.571 1.5141 23.343 3.007 8.3544 2.6138 15.357 2.8709 17.854 0.6557 0.9918-0.87994 2.6856-1.7616 3.764-1.9593 3.293-0.60356 5.495-9.7932 4.358-18.187-0.8244-6.0862-0.6949-7.2846 1.1739-10.87 1.1552-2.2164 1.8503-4.2798 1.5447-4.5854s0.3121-1.4891 1.3727-2.6299c2.3256-2.5014 4.658-11.458 5.5532-21.324 0.5611-6.1838 0.4283-7.25-0.9027-7.25-2.7912 0-1.6509-3.5059 2.4394-7.5 3.6665-3.5802 5.1218-6.5 3.2398-6.5-0.4181 0-1.9931-1.1432-3.5-2.5405-2.1664-2.0088-2.7398-3.4389-2.7398-6.8332 0-2.361-0.5059-6.8118-1.1242-9.8906-1.4261-7.1008-0.5799-11.575 3.0541-16.148 1.5834-1.9924 3.4049-5.8154 4.0479-8.4956s1.9235-5.7328 2.8456-6.7837 2.2925-2.9797 3.0454-4.2864c1.2067-2.0946 1.1545-2.5323-0.4412-3.6991-0.9954-0.72788-2.8489-1.3234-4.1187-1.3234-1.4127 0-2.3089-0.59797-2.3089-1.5405 0-0.84727-0.9606-2.8398-2.1347-4.4278s-1.8682-3.5818-1.5425-4.4306c0.8619-2.2461-1.7031-4.3206-6.303-5.0978-4.7034-0.79463-5.0886-2.2745-1.2669-4.8667 1.5109-1.0249 3.6553-3.2732 4.7653-4.9962 2.2912-3.5566 9.6115-7.6146 13.764-7.63 4.7548-0.0177 9.5185 2.6692 15.799 8.911l6.046 6.0086-4.5954 2.1601c-6.0096 2.8248-6.9606 4.6758-4.49 8.7385 2.0645 3.3948 4.2364 3.9131 8.4165 2.0085 2.2753-1.0367 3.0134-0.79238 6.797 2.25 4.0854 3.285 4.5307 3.404 11.874 3.1742 6.4957-0.2033 8.0325 0.0783 10.342 1.8951 2.2668 1.7831 2.6074 2.6443 2.0715 5.2388-0.3527 1.7077-0.8279 5.8049-1.056 9.1049s-0.7062 7.4573-1.0627 9.2385c-0.5245 2.6212-0.2931 3.3497 1.2138 3.8222 3.7859 1.1869 4.6257 2.0936 6.7205 7.2559 1.1777 2.9022 3.6038 6.7662 5.3913 8.5865 2.7832 2.8344 3.2468 4.0125 3.2278 8.2033-0.015 3.3113-0.6546 5.702-1.9778 7.3936-2.1373 2.7324-2.5679 5.531-1 6.5 2.1141 1.3066 1.0219 6.3098-2 9.162-1.65 1.5573-3 3.6975-3 4.756s-0.7427 2.7452-1.6505 3.7483c-1.5253 1.6854-1.5296 2.3745-0.057 9.0787 0.8768 3.9902 1.8512 9.176 2.1654 11.524 0.5135 3.8359 0.3287 4.3614-1.8207 5.1786-1.365 0.51895-2.8741 2.2919-3.5145 4.1289-1.1894 3.412-0.5547 4.981 3.1269 7.7301 2.1462 1.6025 2.264 4.5218 0.25 6.1933s-1.8925 3.298 0.6142 8.2898c4.5689 9.0982 10.574 14.422 13.249 11.747 1.2926-1.2926 7.6372-1.3756 7.6372-0.10003 0 0.51542 1.5927 0.67866 3.5394 0.36276 2.6068-0.42302 3.8584-0.14264 4.75 1.064 0.774 1.0476 2.4728 1.5778 4.7106 1.4704 4.424-0.21242 7.0316 0.9198 6.3299 2.7485-0.6198 1.6151-0.1571 1.7179 8.4449 1.8746 4.9284 0.0898 6.1622-0.17914 5.75-1.2533-0.2886-0.75218-0.5248-1.8111-0.5248-2.3532 0-0.55535-0.9822-0.69106-2.25-0.31088-2.0174 0.60496-2.0949 0.51367-0.75-0.88322 1.0854-1.1273 4.1258-1.6719 11-1.9704 5.225-0.22689 10.062-0.20097 10.75 0.0576 0.9555 0.35934 1.25 6.5384 1.25 26.224v25.754l-2.3828-0.4555c-1.3105-0.25053-2.6871 0.0369-3.059 0.63867-0.4333 0.70114 0.4226 1.0942 2.3828 1.0942h3.059v52h-826.5l-826.5-1e-5v-68.5zm1642.5 15.5c0.3399-0.55 0.1415-1-0.441-1s-1.059 0.45-1.059 1 0.1984 1 0.441 1 0.7191-0.45 1.059-1zm-83.5-58.342c0-0.46703-0.841-2.0436-1.8688-3.5035s-2.1883-3.6829-2.5787-4.94c-0.4426-1.4252-2.6329-3.2133-5.8183-4.75-5.9288-2.8601-7.3054-3.0241-8.0958-0.96441-0.3166 0.825-1.4373 1.5-2.4904 1.5-2.0092 0-3.1103-2.504-3.1343-7.1276-0.01-1.4452-0.6887-3.1878-1.5137-3.8724s-1.5069-1.9773-1.5153-2.8724-0.4417-2.3021-0.9629-3.1265c-0.7766-1.2285-1.8744-0.59699-6.0843 3.5l-5.1367 4.999 0.633 9.4378c0.3481 5.1908 1.1103 10.013 1.6938 10.716 1.3788 1.6613 7.9098 1.4124 8.5772-0.32688 0.731-1.9051 6.3196-1.2606 7.6584 0.88311 0.9487 1.519 2.4619 1.7321 10.869 1.5308 5.3721-0.12861 9.7674-0.61595 9.7674-1.083zm-195.54-8.2028c2.943-2.2253 2.8227-14.386-0.1988-20.098-1.7827-3.3699-2.0796-5.142-1.5919-9.5 0.3297-2.9465 1.1521-6.0323 1.8274-6.8573 0.6754-0.825 1.9175-3.525 2.7603-6s1.8531-5.2875 2.2451-6.25c0.5429-1.3329 0.219-1.75-1.359-1.75-2.6165 0-3.5288 1.7444-7.6772 14.68-3.757 11.715-4.8995 13.634-7.6062 12.775-1.7161-0.54467-1.8497 0.0487-1.7405 7.7274 0.1805 12.689 0.7031 14.254 4.8861 14.639 1.9226 0.17671 3.9231 0.73921 4.4456 1.25 1.2431 1.2153 1.6746 1.1489 4.0091-0.61623zm31.993-4.2982c-0.04-4.4613-0.4524-5.6541-2.5-7.2278-1.3488-1.0366-3.4102-1.8946-4.581-1.9069-1.4172-0.0148-2.5492-1.0375-3.3869-3.0599-1.213-2.9285-3.8695-3.6427-3.1143-0.83731 0.2036 0.75625 0.4714 4.9447 0.5951 9.3076 0.2565 9.0442 0.7871 9.6205 8.5348 9.2706l4.5-0.20322-0.048-5.3431zm-302.45-15.375c0-1.22 1.2199-3.2664 2.7109-4.5475 2.3237-1.9968 2.5379-2.6062 1.5-4.2683-0.666-1.0664-1.2234-2.5075-1.2387-3.2025-0.047-2.1517-5.1437-8.1077-12.906-15.083-7.0131-6.3023-12.068-8.7351-10.691-5.1446 0.3242 0.84466 0.8386 5.9072 1.1431 11.25 0.603 10.577 2.2886 19.977 3.7437 20.876 0.5062 0.31283 3.1293 0.56878 5.8291 0.56878s4.9088 0.39808 4.9088 0.88461 1.125 0.88462 2.5 0.88462c1.9153 0 2.5-0.51879 2.5-2.2182zm-910.82-10.282c1.0816-1.375 2.8127-2.5 3.8469-2.5s3.0265-0.52223 4.4274-1.1605c2.9124-1.327 3.171-3.4404 1.1425-9.3395-0.7565-2.2-1.7-6.925-2.0968-10.5-0.8369-7.5405-1.8335-9.205-5.0309-8.4026-2.5125 0.63061-4.4678-1.7687-4.4678-5.4825 0-1.1091-0.4778-4.2448-1.0619-6.9682-0.7704-3.5925-1.4959-4.888-2.643-4.7196-1.5078 0.2213-2.378 2.0387-5.3019 11.073-0.712 2.2-2.3518 5.6786-3.6439 7.7301-1.8128 2.8783-2.3526 5.162-2.364 10-0.01 3.4484-0.6867 9.1197-1.5078 12.603-1.607 6.8168-1.3975 8.1023 1.2922 7.9271 0.9517-0.062 3.4782 0.22335 5.6144 0.63409 3.2972 0.63398 3.793 0.50955 3.2814-0.82366-0.8028-2.092-9e-4 -1.9795 3.0617 0.42954 3.1778 2.4997 3.0852 2.5082 5.4515-0.5zm346.55-5.25c-0.58096-7.4943-2.9219-13.416-7.7791-19.677-6.1841-7.9723-5.9868-7.8158-9.0712-7.1989-2.0698 0.41396-3.36 0.0292-4.6904-1.3988-1.7975-1.9294-1.8298-1.8723-1.5688 2.7776 0.96038 17.11 1.4828 21.55 2.8453 24.185 0.84276 1.6297 1.5323 3.8855 1.5323 5.0128 0 1.9237 0.58923 2.0497 9.5888 2.0497h9.5888l-0.44574-5.75zm-405.49 3.5924c1.6543 1.6543 3.5899 1.4347 6.3263-0.71769 2.0222-1.5907 3.1086-1.7355 7.1577-0.95432 2.6255 0.50654 6.0111 0.68668 7.5236 0.40031 1.6983-0.32154 2.75-0.084 2.75 0.62099 0 0.62791 0.2455 0.89619 0.5455 0.59616s-0.3749-4.0598-1.5-8.355-2.0455-9.0748-2.0455-10.621c0-1.7366-0.5326-2.8117-1.393-2.8117-0.7661 0-1.6809-0.75025-2.0327-1.6672-1.2022-3.1327-2.4692 0.0941-2.7733 7.0628-0.3121 7.1511-1.7864 9.5914-5.0401 8.3428-1.2508-0.47996-1.6378-4.2972-2.2467-22.159-0.7777-22.817-1.064-23.877-5.2238-19.329-1.4312 1.5647-1.8293 2.8592-1.3068 4.25 1.7071 4.5436-1.2664 25.701-4.1298 29.385-2.0489 2.6359-2.6705 13.492-0.8374 14.625 0.5589 0.34546 0.6975 1.1595 0.308 1.809s0.072 0.54747 1.0261-0.22672c1.3136-1.0662 2.0151-1.1268 2.8919-0.25zm349.44 0.39926c3.6923 0.78749 4.657 0.67308 5.6381-0.66863 0.65099-0.89027 2.9821-1.8993 5.1803-2.2423s5.2342-1.4884 6.7467-2.5453c3.4001-2.3758 3.4721-4.4252 0.69732-19.835-1.5219-8.4518-2.5885-11.899-4.1248-13.33-1.7771-1.6557-1.9977-2.7514-1.5492-7.6969 0.28758-3.1715 1.3414-8.944 2.3419-12.828 2.3834-9.2522 1.3514-10.545-4.9553-6.2054-2.4861 1.7105-4.8424 3.11-5.2363 3.11s-2.881 2.025-5.527 4.5-5.4722 4.5-6.2805 4.5c-1.5012 0-4.6161-5.1915-4.6161-7.6935 0-0.76241 0.9-3.1503 2-5.3065 2.428-4.7593 2.9622-17.043 0.65799-15.131-0.7381 0.61257-1.6719 0.78392-2.075 0.38077s-1.1769 0.0602-1.7194 1.0297c-1.2697 2.2688-2.8635 1.2831-2.8635-1.771 0-1.5241-0.74279-2.6094-2.0754-3.0323-1.1414-0.36228-2.2256-0.5051-2.4092-0.31739-0.7063 0.72205-0.89786 8.7922-0.22468 9.4654 1.4804 1.4804 0.61059 2.441-1.9595 2.1638-2.4385-0.26302-2.8118 0.18665-4.3268 5.2122-0.91192 3.025-2.2436 6.5905-2.9592 7.9233-1.7294 3.2209-1.4042 19.282 0.48191 23.796 0.78064 1.8684 1.7028 5.7333 2.0492 8.5888s1.5579 7.1751 2.6921 9.5991c1.8022 3.8516 1.9168 4.9508 0.90931 8.7177-1.5987 5.9773 0.94488 12.222 3.376 8.2879 0.36953-0.59791 1.492-0.87264 2.4944-0.61051 1.0931 0.28586 2.0771-0.17956 2.4586-1.1629 0.58049-1.4964 0.74848-1.4868 1.9248 0.11051 0.70886 0.9625 2.0002 1.75 2.8696 1.75s1.8623 0.45557 2.2064 1.0124c0.37559 0.60771 1.2446 0.66599 2.1742 0.14579 0.88613-0.4959 3.4539-0.4602 6.003 0.0835zm-170.86-2.1489c1.249-0.66842 2.1733-2.1264 2.1733-3.4279 0-2.203 1.6532-4.6648 3.1326-4.6648 0.40294 0 1.0183 0.9 1.3674 2 0.87237 2.7486 2.9474 2.5083 4.318-0.5 0.62649-1.375 1.5506-2.5 2.0535-2.5 1.0849 0 2.1284 2.439 2.1284 4.9748 0 4.8422 8.5379 1.4632 12.271-4.8564 2.4178-4.093 2.2408-5.4848-2.2027-17.315-4.4456-11.836-9.5985-18.439-13.976-17.91l-2.4076 0.2908 0.64496-10.541c0.67706-11.066 0.459-11.771-3.7874-12.247-4.2645-0.47874-7.5423-2.3528-7.5423-4.3122 0-1.0812 0.45-2.2438 1-2.5838s1-1.6801 1-2.9782 0.62937-4.9841 1.3986-8.191c1.5488-6.4568 4.1202-18.058 5.116-23.081 1.0664-5.3793-0.51392-4.2745-5.3639 3.75-1.9144 3.1673-3.4927 9.6937-3.4388 14.219 0.0449 3.773-0.32152 4.8393-1.8271 5.3172-1.387 0.44021-1.6555 1.0412-1.0191 2.2806 1.0742 2.092 0.39865 4.1828-1.3516 4.1828-0.76771 0-2.2336 3.0102-3.5062 7.1999-2.0689 6.8113-7.1436 15.8-8.9201 15.8-0.92885 0-4.0968 7.8085-4.0705 10.033 9e-3 0.80661 1.138 2.5297 2.5078 3.8291s4.0697 5.6902 5.9998 9.7575 4.8573 8.5961 6.505 10.064 3.513 4.3955 4.1451 6.5055c1.0316 3.4433 0.92792 4.0719-1.0128 6.1378-1.1892 1.2658-2.1622 3.2692-2.1622 4.4519s-0.9 2.632-2 3.2207-2 1.4684-2 1.9548c0 1.2164 8.1565 0.56698 10.827-0.86207zm662.77-2.3427c-0.90651-5.8728-3.6102-13.861-4.5043-13.309-0.40633 0.25113-0.67711 3.5959-0.60174 7.4328 0.13916 7.0836 1.4181 10.126 4.2567 10.126 1.2073 0 1.3754-0.84164 0.84935-4.25zm-860.82-1.7287c0.047-1.6426-0.3348-3.246-0.8477-3.563s-0.9503-1.5623-0.9718-2.7674c-0.031-1.7397-0.3429-1.491-1.5143 1.2078-1.5061 3.4701-1.5348 6.5816-0.082 8.8998 1.2554 2.0034 3.3164-0.27556 3.416-3.7772zm448.56 1.5385c2.0246-1.8764 2.5109-3.0894 2.1046-5.25-0.29059-1.5454-1.2106-6.4098-2.0443-10.81s-1.8915-10.475-2.3504-13.5c-0.45891-3.025-1.5553-6.85-2.4365-8.5s-1.6049-3.5891-1.6082-4.309-0.3969-1.0675-0.87446-0.77237-1.1749 3.2467-1.5497 6.559c-0.64946 5.7405-0.81027 6.0224-3.4355 6.0224-1.7999 0-3.8364-1.1261-5.8776-3.25-2.6071-2.7127-3.2895-4.4648-4.1278-10.598-0.5524-4.0416-1.2338-7.5777-1.5141-7.8581-0.74062-0.74062-3.6269 6.5579-3.6269 9.1713 0 1.2213 1.1168 4.2039 2.4819 6.6279 3.4302 6.0913 7.0542 13.918 7.8289 16.907 0.64799 2.5007 2.1883 5.0287 7.5947 12.464 2.2969 3.159 2.7008 4.4416 1.9885 6.3151-1.2317 3.2397-1.2432 3.2208 1.9601 3.2208 1.6396 0 3.9744-1.0383 5.487-2.4402zm-5.3409-3.5008c0-0.51754 0.40939-1.194 0.90976-1.5032 1.2922-0.79864 4.1896 0.47441 3.5255 1.549-0.73594 1.1908-4.4352 1.1526-4.4352-0.0458zm227.56-1.1598c0.38684-0.62591 1.9221-0.85239 3.559-0.525 2.7795 0.5559 2.8787 0.44079 2.8787-3.3397 0-6.9006-9.7073-31.035-12.483-31.035-0.86161 0-1.9777-1.0813-2.4801-2.4029s-1.3945-2.7001-1.9823-3.0634c-1.9615-1.2123-2.1966 2.1701-0.66773 9.6035 0.8329 4.0495 1.5116 10.785 1.5082 14.967-7e-3 8.7444 0.74304 12.67 2.8942 15.145 1.6989 1.9551 5.7272 2.3413 6.773 0.64926zm-54.763-2.2512c1.4852-0.74355 6.0753-1.9115 10.2-2.5955 6.4881-1.0758 8.3599-1.0203 13.874 0.41137 3.5056 0.91023 6.9931 1.4173 7.75 1.1269 1.7955-0.68898 1.7842-6.7911-0.0243-13.159-0.77028-2.7123-1.956-8.0815-2.6349-11.932s-1.7861-8.125-2.4604-9.5c-2.1155-4.3136-2.5815-10.297-1.0342-13.28 1.8756-3.6152 1.8116-16.242-0.0904-17.82-0.75881-0.62973-1.3796-1.7475-1.3796-2.484s-1.7729-1.8164-3.9397-2.3999c-4.1137-1.1077-4.4716-1.6707-5.5759-8.7705-0.82668-5.3152-2.4844-4.5724-2.4844 1.1133 0 4.4671-1.3195 6.641-4.031 6.641-2.5905 0-4.3038-4.3375-3.7286-9.4399 0.56849-5.0436 0.37454-5.3178-2.048-2.8952-1.6843 1.6843-1.8832 2.754-2.641 14.205-0.37713 5.6986-0.77769 6.6993-3.8026 9.5-1.8596 1.7217-3.6747 3.9179-4.0335 4.8804-0.82057 2.2011-6.2544 2.393-7.0768 0.25-0.333-0.8678-1.8284-1.5-3.548-1.5-1.6348 0-3.264-0.47185-3.6204-1.0486-0.77019-1.2462-3.47 0.64784-3.47 2.4344 0 0.6275-1.6322 3.5646-3.6271 6.5269-2.9373 4.3616-3.7235 6.586-4.1336 11.695-0.49413 6.1558 0.34299 9.4831 3.9983 15.892 0.62738 1.1 2.1511 4.025 3.386 6.5 6.2648 12.556 18.155 19.664 26.176 15.648zm635.85-7.1451c1.7335-3.2308 3.4253-7.5844 3.7596-9.6748s1.3571-5.372 2.2729-7.2926c1.5693-3.2909 1.5622-3.6057-0.1233-5.4682-1.4672-1.6212-1.6007-2.5152-0.7428-4.9761 0.9149-2.6246 0.7947-3.0795-0.9616-3.6369-1.1041-0.35041-2.2492-0.39531-2.5448-0.0998-0.8708 0.87082-5.7869 24.368-7.0144 33.527-0.8185 6.1071 1.3081 5.1623 5.3544-2.3786zm-765.65-65.503c0-0.55-0.45-1-1-1s-1 0.45-1 1 0.45 1 1 1 1-0.45 1-1zm-468.4-9.8272c-1.7728-1.7728-3.1363-1.0092-2.2627 1.2672 0.3519 0.9172 1.2303 1.2789 2.201 0.90639 1.4608-0.56054 1.4667-0.76864 0.062-2.1736zm192.38-5.0452c-0.0254-4.3626-1.6066-5.7681-2.3436-2.0832-0.35262 1.7631-0.64113 4.1045-0.64113 5.2031 0 1.6621 0.25181 1.7885 1.5 0.75256 0.825-0.68469 1.4931-2.4273 1.4847-3.8724zm378.83-20.378c0.26476-1.3976-0.37621-1.75-3.1828-1.75-3.6226 0-5.2406 1.2069-4.0975 3.0564 1.07 1.7314 6.9031 0.6847 7.2803-1.3064zm566.18-2.75c0-2.1172-2.4111-2.6591-4.8781-1.0965-1.941 1.2294-0.4715 3.0965 2.4371 3.0965 1.7743 0 2.441-0.54623 2.441-2zm-845.5-14c0.33992-0.55 0.14148-1-0.44098-1s-1.059 0.45-1.059 1 0.19844 1 0.44098 1 0.7191-0.45 1.059-1zm10.5-0.97432c0-0.53588-1.2831-1.6378-2.8512-2.4488-2.1608-1.1174-3.1318-1.1939-4.0097-0.31602s-0.61118 1.4623 1.1012 2.4133c2.7207 1.511 5.7596 1.6964 5.7596 0.35146zm-90.607-15.607c1.0587-2.759 0.6972-3.738-0.89301-2.4182-1.637 1.3586-2.0378 4-0.60699 4 0.49116 0 1.1662-0.7118 1.5-1.5818zm1287.6 200.58c0-0.55 0.675-1 1.5-1s1.5 0.45 1.5 1-0.675 1-1.5 1-1.5-0.45-1.5-1z"/>
 </g>
</svg>
